<svg width="20" height="20" viewBox="0 0 20 20"  xmlns="http://www.w3.org/2000/svg">
<path d="M19.9946 19.9992L19.9996 19.9984V12.6638C19.9996 9.07556 19.2272 6.31152 15.0324 6.31152C13.0159 6.31152 11.6626 7.41814 11.1101 8.46725H11.0518V6.64651H7.07446V19.9984H11.2159V13.387C11.2159 11.6462 11.5459 9.96301 13.7016 9.96301C15.8257 9.96301 15.8574 11.9496 15.8574 13.4987V19.9992H19.9946Z" />
<path d="M0.329834 6.64795H4.47631V19.9998H0.329834V6.64795Z" />
<path d="M2.40155 0C1.07578 0 0 1.07578 0 2.40155C0 3.72732 1.07578 4.8256 2.40155 4.8256C3.72732 4.8256 4.8031 3.72732 4.8031 2.40155C4.80227 1.07578 3.72649 0 2.40155 0Z" />
</svg>
