<svg width="18" height="22" viewBox="0 0 18 22"  xmlns="http://www.w3.org/2000/svg">
<path d="M9.30117 0C3.22917 0 0 3.86392 0 8.07711C0 10.0311 1.09947 12.4677 2.85945 13.2405C3.1267 13.36 3.27209 13.3092 3.33164 13.063C3.38426 12.876 3.61551 11.9754 3.72767 11.5505C3.76228 11.4144 3.74428 11.2961 3.63351 11.1683C3.04916 10.4972 2.58528 9.27478 2.58528 8.12798C2.58528 5.18948 4.93791 2.33623 8.94115 2.33623C12.403 2.33623 14.8248 4.56933 14.8248 7.76359C14.8248 11.3731 12.9015 13.8702 10.402 13.8702C9.01869 13.8702 7.98846 12.7922 8.31525 11.4584C8.7099 9.87019 9.48395 8.16237 9.48395 7.01694C9.48395 5.98977 8.8996 5.13998 7.70598 5.13998C6.29771 5.13998 5.15531 6.52467 5.15531 8.38375C5.15531 9.56492 5.57627 10.3625 5.57627 10.3625C5.57627 10.3625 4.18324 15.9508 3.9243 16.9944C3.48672 18.7614 3.98384 21.6228 4.02677 21.869C4.05308 22.0051 4.20678 22.0477 4.29264 21.9364C4.42972 21.7575 6.11354 19.3719 6.58573 17.6475C6.75744 17.0192 7.46227 14.4711 7.46227 14.4711C7.92614 15.3031 9.26517 16.0003 10.6914 16.0003C14.9343 16.0003 18 12.2972 18 7.70172C17.9847 3.29603 14.1879 0 9.30117 0Z" />
</svg>
