<svg width="23" height="18" viewBox="0 0 23 18"  xmlns="http://www.w3.org/2000/svg">
<path d="M7.23557 18C15.9127 18 20.66 11.0741 20.66 5.0699C20.66 4.8752 20.6555 4.67616 20.6465 4.48146C21.57 3.83819 22.367 3.04141 23 2.12857C22.1399 2.49714 21.2267 2.73785 20.2917 2.84248C21.2762 2.27405 22.0134 1.38106 22.3666 0.329064C21.4404 0.857774 20.4274 1.23073 19.3712 1.43196C18.6596 0.703629 17.7186 0.221391 16.6939 0.0597979C15.6691 -0.101795 14.6176 0.0662586 13.702 0.537976C12.7864 1.00969 12.0576 1.7588 11.6283 2.66948C11.199 3.58016 11.0931 4.60169 11.3271 5.57613C9.45156 5.48548 7.61677 5.01622 5.94165 4.19877C4.26653 3.38131 2.78846 2.23392 1.60326 0.830969C1.00088 1.83129 0.816554 3.01501 1.08774 4.14153C1.35892 5.26805 2.06527 6.25286 3.06322 6.89579C2.31402 6.87288 1.58123 6.6786 0.925391 6.32899V6.38523C0.924719 7.435 1.30151 8.4526 1.99171 9.26505C2.68192 10.0775 3.64293 10.6346 4.71141 10.8418C4.01739 11.0247 3.28898 11.0513 2.58256 10.9197C2.88406 11.8225 3.47067 12.6121 4.26053 13.1783C5.05039 13.7446 6.00407 14.0592 6.9885 14.0782C5.31724 15.3427 3.25275 16.0285 1.12754 16.0253C0.75065 16.0247 0.374132 16.0025 0 15.9586C2.15899 17.2927 4.67047 18.0013 7.23557 18Z" />
</svg>
